<svg width="10" height="18" viewBox="0 0 10 18" fill="none" xmlns="http://www.w3.org/2000/svg">
<path d="M0.188699 1.00763C0.193688 1.21864 0.281862 1.41914 0.434012 1.56544L7.86839 8.99981L0.434012 16.4342C0.357376 16.5087 0.29646 16.5979 0.254863 16.6964C0.213266 16.7949 0.191831 16.9007 0.191824 17.0076C0.191866 17.1668 0.239369 17.3223 0.32826 17.4543C0.417151 17.5863 0.543391 17.6888 0.69084 17.7487C0.83829 17.8086 1.00025 17.8231 1.15601 17.7905C1.31177 17.7578 1.45426 17.6795 1.56526 17.5654L9.56526 9.56544C9.71523 9.4154 9.79948 9.21195 9.79948 8.99981C9.79948 8.78768 9.71523 8.58422 9.56526 8.43419L1.56526 0.434189C1.45354 0.318007 1.30933 0.238277 1.15153 0.205446C0.993724 0.172613 0.829683 0.18821 0.680893 0.250191C0.532103 0.312172 0.405504 0.41765 0.317678 0.552805C0.229853 0.687958 0.184897 0.846487 0.188699 1.00763Z" fill="white"/>
</svg>
