<svg width="18" height="10" viewBox="0 0 18 10" fill="none" xmlns="http://www.w3.org/2000/svg">
<path d="M16.9923 0.189066C16.7812 0.194055 16.5807 0.282228 16.4344 0.434378L9.00006 7.86875L1.56569 0.434378C1.49114 0.357743 1.40198 0.296827 1.30349 0.255229C1.205 0.213632 1.09917 0.192197 0.992253 0.192191C0.833106 0.192232 0.677588 0.239735 0.54558 0.328626C0.413573 0.417517 0.311074 0.543757 0.251188 0.691206C0.191303 0.838656 0.176751 1.00062 0.209394 1.15638C0.242037 1.31214 0.320392 1.45463 0.43444 1.56563L8.43444 9.56563C8.58447 9.7156 8.78793 9.79985 9.00006 9.79985C9.2122 9.79985 9.41566 9.7156 9.56569 9.56563L17.5657 1.56563C17.6819 1.45391 17.7616 1.3097 17.7944 1.15189C17.8273 0.99409 17.8117 0.830049 17.7497 0.681259C17.6877 0.53247 17.5822 0.40587 17.4471 0.318044C17.3119 0.230219 17.1534 0.185263 16.9923 0.189066Z" fill="white"/>
</svg>